<?xml version="1.0" encoding="UTF-8" standalone="no"?>
<svg xmlns:svg="http://www.w3.org/2000/svg" xmlns="http://www.w3.org/2000/svg" version="1.1" width="25" height="26.155001" viewBox="0 0 25 26.155" id="container" xml:space="preserve">
<g id="Zoom">
	<path id="glass_frame" d="
		M	7.204	0.33

		C	11.67	-0.938
			16.779	1.559
			18.502	5.876

			20.076	9.37
			19.208	13.549
			16.811	16.449
			
			17.023	16.647
			17.45	17.048
			17.662	17.25
			
			17.864	17.115
			18.269	16.846
			18.471	16.711

			20.126	18.024
			21.444	19.692
			22.996	21.118

			23.684	21.873
			24.597	22.494
			25.002	23.461
			
			24.134	24.451
			23.279	25.822
			21.971	26.155
			
			19.933	24.302
			18.04	22.278
			16.088	20.335
			
			15.395	19.899
			15.908	19.18
			16.092	18.608
			
			15.867	18.41
			15.422	18.005
			15.201	17.807
			
			12.782	19.39
			9.701	19.966
			6.916	19.112

			3.413	18.113
			0.665	14.956
			0.152	11.344
			
			-0.748	6.596
			2.463	1.459
			7.204	0.33

			Z
		
		M	7.824	2.139

		C	5.036	2.822
			2.773	5.147
			2.117	7.936
			
			1.204	11.354
			3.057	15.213
			6.21	16.764
			
			8.414	17.944
			11.211	17.871
			13.37	16.616
			
			16.68	14.845
			18.367	10.486
			16.887	6.988
			
			15.618	3.42
			11.512	1.136
			7.824	2.139
			
			Z
		" />

		
	<path id="cross" d="
		M	8.526	5.453
		
		C	9.277	5.453
			10.024	5.453
			10.775	5.453
			
			10.775	6.501
			10.775	7.554
			10.775	8.601
			
			11.823	8.601
			12.875	8.601
			13.923	8.601
			
			13.923	9.352
			13.923	10.098
			13.923	10.85
			
			12.875	10.85
			11.823	10.85
			10.775	10.85
			
			10.775	11.898
			10.775	12.95
			10.775	13.997
			
			10.024	13.997
			9.277	13.997
			8.526	13.997
			
			8.526	12.949
			8.526	11.897
			8.526	10.85
			
			7.478	10.85
			6.426	10.85
			5.378	10.85
			
			5.378	10.098
			5.378	9.352
			5.378	8.601
			
			6.426	8.601
			7.479	8.601
			8.526	8.601
			
			8.526	7.554
			8.526	6.501
			8.526	5.453
			Z
		" />
	</g>
</svg>